<svg width="120.000000" height="119.000000" viewBox="0 0 120 119" fill="none" xmlns="http://www.w3.org/2000/svg" xmlns:xlink="http://www.w3.org/1999/xlink">
	<desc>
			Created with Pixso.
	</desc>
	<defs>
		<clipPath id="clip2_5886">
			<rect width="120.000000" height="119.000000" fill="white" fill-opacity="0"/>
		</clipPath>
	</defs>
	<rect width="120.000000" height="119.000000" fill="#FFFFFF" fill-opacity="0"/>
	<g clip-path="url(#clip2_5886)">
		<path d="M22.13 101.15L13.71 7.43L106.29 7.43L97.85 101.13L59.94 111.56L22.13 101.15Z" fill="#1572B6" fill-opacity="1.000000" fill-rule="nonzero"/>
		<path d="M60 103.59L90.63 95.17L97.84 15.1L60 15.1L60 103.59Z" fill="#33A9DC" fill-opacity="1.000000" fill-rule="nonzero"/>
		<path d="M60 49.05L75.33 49.05L76.39 37.28L60 37.28L60 25.78L89.06 25.78L88.78 28.87L85.93 60.54L60 60.54L60 49.05Z" fill="#FFFFFF" fill-opacity="1.000000" fill-rule="nonzero"/>
		<path d="M60.07 78.9L60.01 78.91L47.11 75.46L46.28 66.29L34.65 66.29L36.27 84.34L60.01 90.87L60.07 90.86L60.07 78.9Z" fill="#EBEBEB" fill-opacity="1.000000" fill-rule="nonzero"/>
		<path d="M74.35 60.06L72.95 75.45L60.03 78.91L60.03 90.87L83.79 84.34L83.96 82.4L85.98 60.06L74.35 60.06Z" fill="#FFFFFF" fill-opacity="1.000000" fill-rule="nonzero"/>
		<path d="M60.04 25.78L60.04 37.28L32.04 37.28L31.81 34.69L31.28 28.87L31 25.78L60.04 25.78ZM60 49.05L60 60.54L47.25 60.54L47.02 57.96L46.49 52.13L46.21 49.05L60 49.05Z" fill="#EBEBEB" fill-opacity="1.000000" fill-rule="nonzero"/>
	</g>


	<g id="code">
		<path d="M12.5581 0V3.83066C11.5028 3.83066 10.6796 3.98157 10.0882 4.28338C9.49679 4.57357 9.24169 5.15977 9.32287 6.04199L9.86206 11.1785C10.0012 12.4786 9.85626 13.5292 9.42722 14.3301C9.00978 15.131 8.36623 15.7464 7.49655 16.1758C6.63848 16.5938 5.62386 16.8897 4.45271 17.0638C5.69343 17.2495 6.74284 17.5514 7.60092 17.9693C8.45899 18.3871 9.08516 18.9907 9.47941 19.7801C9.87366 20.5695 10.0012 21.6258 9.86206 22.9492L9.32287 28.0857C9.24169 28.9679 9.49679 29.5541 10.0882 29.8443C10.6796 30.146 11.5028 30.297 12.5581 30.297V34.1277C9.35765 34.1277 7.1081 33.6401 5.80939 32.6651C4.52229 31.7016 4.00048 30.0475 4.24398 27.7026L4.76579 22.7227C4.85856 21.8406 4.70782 21.1499 4.31357 20.6507C3.93091 20.1516 3.36272 19.8033 2.60901 19.6059C1.85529 19.3971 0.985626 19.2926 0 19.2926V14.8351C0.97403 14.8351 1.8379 14.7364 2.59162 14.5391C3.34533 14.3301 3.91932 13.9761 4.31357 13.477C4.70782 12.9778 4.85856 12.2871 4.76579 11.4049L4.24398 6.45987C3.98889 4.06861 4.51068 2.39706 5.80939 1.4452C7.1081 0.481734 9.35765 0 12.5581 0Z" fill="url(#paint0_linear_2_5657)"/>
		<path d="M27.633 4.50977C30.5087 4.50977 32.6771 5.62414 34.1381 7.85288C35.6108 10.07 36.3471 13.1636 36.3471 17.1335C36.3471 21.115 35.6108 24.2318 34.1381 26.4838C32.6771 28.7242 30.5087 29.8443 27.633 29.8443C24.7342 29.8443 22.5541 28.7242 21.0931 26.4838C19.6436 24.2318 18.9189 21.115 18.9189 17.1335C18.9189 13.1636 19.6436 10.07 21.0931 7.85288C22.5541 5.62414 24.7342 4.50977 27.633 4.50977ZM27.633 8.49713C26.4039 8.49713 25.5052 9.15879 24.937 10.4821C24.3689 11.7938 24.0847 14.0109 24.0847 17.1335C24.0847 18.1551 24.1022 19.0663 24.1369 19.8672C24.1718 20.6566 24.224 21.3589 24.2935 21.9741L30.1724 9.66374C29.8942 9.22264 29.5463 8.92083 29.1289 8.75831C28.7231 8.5842 28.2244 8.49713 27.633 8.49713ZM31.1465 17.1335C31.1465 15.7986 31.1175 14.6726 31.0595 13.7555L25.511 25.2302C25.7662 25.4739 26.0676 25.6422 26.4154 25.7351C26.775 25.8279 27.1808 25.8744 27.633 25.8744C28.4564 25.8744 29.1231 25.5958 29.6333 25.0387C30.1551 24.4815 30.5377 23.5644 30.7812 22.2875C31.0248 20.999 31.1465 19.281 31.1465 17.1335Z" fill="url(#paint1_linear_2_5657)"/>
		<path d="M48.5002 4.50977C51.3759 4.50977 53.5443 5.62414 55.0053 7.85288C56.478 10.07 57.2142 13.1636 57.2142 17.1335C57.2142 21.115 56.478 24.2318 55.0053 26.4838C53.5443 28.7242 51.3759 29.8443 48.5002 29.8443C45.6012 29.8443 43.4213 28.7242 41.9603 26.4838C40.5108 24.2318 39.7861 21.115 39.7861 17.1335C39.7861 13.1636 40.5108 10.07 41.9603 7.85288C43.4213 5.62414 45.6012 4.50977 48.5002 4.50977ZM48.5002 8.49713C47.2711 8.49713 46.3724 9.15879 45.8042 10.4821C45.2361 11.7938 44.9519 14.0109 44.9519 17.1335C44.9519 18.1551 44.9694 19.0663 45.0041 19.8672C45.0389 20.6566 45.0911 21.3589 45.1607 21.9741L51.0396 9.66374C50.7613 9.22264 50.4134 8.92083 49.9961 8.75831C49.5901 8.5842 49.0915 8.49713 48.5002 8.49713ZM52.0137 17.1335C52.0137 15.7986 51.9847 14.6726 51.9267 13.7555L46.3782 25.2302C46.6332 25.4739 46.9348 25.6422 47.2826 25.7351C47.6422 25.8279 48.048 25.8744 48.5002 25.8744C49.3234 25.8744 49.9902 25.5958 50.5005 25.0387C51.0222 24.4815 51.4049 23.5644 51.6484 22.2875C51.8919 20.999 52.0137 19.281 52.0137 17.1335Z" fill="url(#paint2_linear_2_5657)"/>
		<path d="M68.1146 29.8095L62.8966 28.1902L71.889 9.26321H61.2964V5.11914H77.4549V8.84532L68.1146 29.8095Z" fill="url(#paint3_linear_2_5657)"/>
		<path d="M84.4419 0C87.6423 0 89.8861 0.481734 91.1732 1.4452C92.4719 2.40867 92.9995 4.06862 92.756 6.42505L92.2342 11.4049C92.1414 12.2871 92.2921 12.9778 92.6864 13.477C93.0807 13.9761 93.6488 14.3301 94.3909 14.5391C95.1447 14.7364 96.0144 14.8351 97 14.8351V19.2926C96.0259 19.2926 95.1621 19.3971 94.4083 19.6059C93.6547 19.8033 93.0807 20.1516 92.6864 20.6507C92.2921 21.1499 92.1414 21.8406 92.2342 22.7227L92.756 27.6678C93.0227 30.0475 92.5009 31.719 91.1905 32.6824C89.8918 33.646 87.6423 34.1277 84.4419 34.1277V30.297C85.5088 30.297 86.3378 30.146 86.9291 29.8443C87.5206 29.5541 87.7699 28.9679 87.6772 28.0857L87.1379 22.9492C86.9988 21.6374 87.1379 20.5868 87.5553 19.7976C87.9844 18.9965 88.6338 18.3871 89.5035 17.9693C90.373 17.5397 91.3935 17.238 92.5646 17.0638C91.3239 16.8781 90.2688 16.5763 89.3991 16.1584C88.5409 15.7405 87.9149 15.1369 87.5206 14.3476C87.1263 13.5466 86.9988 12.4903 87.1379 11.1785L87.6772 6.04199C87.7699 5.15977 87.5147 4.57357 86.9118 4.28338C86.3204 3.98157 85.4971 3.83066 84.4419 3.83066V0Z" fill="url(#paint4_linear_2_5657)"/>
		<path d="M12.2746 42.1621C13.2417 42.1621 14.0209 42.4024 14.6122 42.883C15.2037 43.3635 15.635 44.0426 15.9064 44.9202C16.1846 45.7977 16.3238 46.839 16.3238 48.0439C16.3238 49.1862 16.1568 50.2065 15.8229 51.1049C15.4889 51.9964 15.0054 52.6999 14.3723 53.2153C13.7391 53.7238 12.9703 53.978 12.0659 53.978C10.9875 53.978 10.1108 53.5914 9.43597 52.8182V57.9061L6.13818 58.2509V42.5278H9.06028L9.20639 43.771C9.65862 43.1929 10.1526 42.782 10.6883 42.5382C11.224 42.2875 11.7528 42.1621 12.2746 42.1621ZM11.2519 44.5964C10.8692 44.5964 10.5318 44.7113 10.2396 44.9411C9.94735 45.1709 9.67948 45.4843 9.43597 45.8813V50.5617C9.66557 50.903 9.9056 51.1537 10.1561 51.3139C10.4135 51.474 10.7161 51.5542 11.064 51.5542C11.6484 51.5542 12.1041 51.2895 12.4312 50.7601C12.7582 50.2238 12.9216 49.3325 12.9216 48.0857C12.9216 47.1663 12.8555 46.456 12.7233 45.9545C12.5912 45.4461 12.3999 45.0943 12.1493 44.8993C11.8989 44.6973 11.5997 44.5964 11.2519 44.5964Z" fill="url(#paint5_linear_2_5657)"/>
		<path d="M27.9881 50.4259C27.9881 50.8437 28.0437 51.1467 28.1551 51.3348C28.2733 51.5228 28.4612 51.6657 28.7186 51.7631L28.0403 53.9362C27.3862 53.8735 26.8332 53.7307 26.3809 53.5078C25.9356 53.278 25.5843 52.9332 25.3269 52.4736C24.9025 52.982 24.3598 53.3615 23.6989 53.6123C23.0379 53.856 22.3631 53.978 21.6743 53.978C20.5332 53.978 19.6218 53.6541 18.94 53.0063C18.2651 52.3517 17.9277 51.5124 17.9277 50.4886C17.9277 49.2837 18.3974 48.3538 19.3366 47.6991C20.2827 47.0445 21.6116 46.7172 23.3231 46.7172H24.8155V46.2992C24.8155 45.164 24.085 44.5964 22.6239 44.5964C22.2692 44.5964 21.8134 44.6486 21.2568 44.7531C20.7002 44.8505 20.1436 44.9932 19.587 45.1813L18.8252 42.9875C19.5419 42.7159 20.2863 42.5103 21.0585 42.3711C21.8377 42.2318 22.5335 42.1621 23.1457 42.1621C24.7946 42.1621 26.0121 42.4999 26.7983 43.1754C27.5915 43.8441 27.9881 44.8122 27.9881 46.0798V50.4259ZM22.8117 51.6169C23.1666 51.6169 23.5389 51.5124 23.9285 51.3034C24.3181 51.0876 24.6137 50.7846 24.8155 50.3946V48.5977H24.0015C23.0831 48.5977 22.4083 48.7404 21.9769 49.0259C21.5456 49.3045 21.3299 49.7155 21.3299 50.2588C21.3299 50.6836 21.4585 51.0179 21.716 51.2616C21.9804 51.4985 22.3457 51.6169 22.8117 51.6169Z" fill="url(#paint6_linear_2_5657)"/>
		<path d="M41.6355 42.5276L37.9412 53.6225H34.059L30.3228 42.5276H33.8815L36.0418 51.0943L38.2959 42.5276H41.6355Z" fill="url(#paint7_linear_2_5657)"/>
		<path d="M53.0286 50.4259C53.0286 50.8437 53.0843 51.1467 53.1956 51.3348C53.3139 51.5228 53.5017 51.6657 53.7591 51.7631L53.0808 53.9362C52.4267 53.8735 51.8737 53.7307 51.4215 53.5078C50.9762 53.278 50.6249 52.9332 50.3674 52.4736C49.9431 52.982 49.4003 53.3615 48.7394 53.6123C48.0784 53.856 47.4036 53.978 46.7148 53.978C45.5738 53.978 44.6623 53.6541 43.9805 53.0063C43.3057 52.3517 42.9683 51.5124 42.9683 50.4886C42.9683 49.2837 43.4379 48.3538 44.3771 47.6991C45.3233 47.0445 46.6522 46.7172 48.3637 46.7172H49.856V46.2992C49.856 45.164 49.1255 44.5964 47.6645 44.5964C47.3097 44.5964 46.8539 44.6486 46.2973 44.7531C45.7407 44.8505 45.1842 44.9932 44.6276 45.1813L43.8658 42.9875C44.5824 42.7159 45.3268 42.5103 46.099 42.3711C46.8783 42.2318 47.574 42.1621 48.1862 42.1621C49.8351 42.1621 51.0527 42.4999 51.8388 43.1754C52.632 43.8441 53.0286 44.8122 53.0286 46.0798V50.4259ZM47.8523 51.6169C48.2071 51.6169 48.5794 51.5124 48.969 51.3034C49.3586 51.0876 49.6543 50.7846 49.856 50.3946V48.5977H49.0421C48.1236 48.5977 47.4488 48.7404 47.0175 49.0259C46.5861 49.3045 46.3704 49.7155 46.3704 50.2588C46.3704 50.6836 46.4992 51.0179 46.7565 51.2616C47.0209 51.4985 47.3862 51.6169 47.8523 51.6169Z" fill="url(#paint8_linear_2_5657)"/>
		<path d="M56.2188 53.6227V42.5278H59.0992L59.3288 43.8128C59.8227 43.2556 60.3444 42.8412 60.8942 42.5696C61.4437 42.2979 62.0699 42.1621 62.7726 42.1621C63.7188 42.1621 64.4633 42.4511 65.006 43.0293C65.5486 43.6074 65.8199 44.4222 65.8199 45.4739V53.6227H62.5222V46.4246C62.5222 45.7421 62.4457 45.2685 62.2925 45.0037C62.1464 44.7322 61.8682 44.5964 61.4576 44.5964C61.1098 44.5964 60.7759 44.7077 60.4558 44.9307C60.1427 45.1535 59.8296 45.4634 59.5166 45.8604V53.6227H56.2188Z" fill="url(#paint9_linear_2_5657)"/>
		<path d="M76.9314 42.1621C77.7174 42.1621 78.2985 42.4199 78.6742 42.9353C79.0568 43.4436 79.2481 44.269 79.2481 45.4112V53.6227H76.42V45.7873C76.42 45.3973 76.3817 45.1222 76.3052 44.962C76.2356 44.8017 76.0894 44.7217 75.8668 44.7217C75.693 44.7217 75.512 44.774 75.3241 44.8784C75.1433 44.9759 74.9415 45.164 74.7189 45.4425V53.6227H72.4021V45.7873C72.4021 45.3973 72.3638 45.1222 72.2873 44.962C72.2177 44.8017 72.0716 44.7217 71.8489 44.7217C71.6751 44.7217 71.4941 44.774 71.3062 44.8784C71.1254 44.9759 70.9236 45.164 70.701 45.4425V53.6227H67.8311V42.5278H70.2522L70.4714 43.6038C70.8193 43.1302 71.1707 42.7715 71.5254 42.5278C71.8803 42.284 72.3012 42.1621 72.7882 42.1621C73.2056 42.1621 73.5604 42.27 73.8527 42.486C74.1519 42.695 74.3641 43.0257 74.4893 43.4784C74.8233 43.0884 75.192 42.7715 75.5955 42.5278C75.9991 42.284 76.4443 42.1621 76.9314 42.1621Z" fill="url(#paint10_linear_2_5657)"/>
		<path d="M91.1004 40.7517L91.8728 43.1754C91.4832 43.3287 91.0274 43.4401 90.5057 43.5097C89.9838 43.5794 89.3751 43.6142 88.6794 43.6142C89.3751 43.9137 89.9038 44.2863 90.2656 44.7321C90.6344 45.1708 90.8187 45.7489 90.8187 46.4664C90.8187 47.1837 90.6274 47.8245 90.2448 48.3886C89.862 48.9458 89.3195 49.3846 88.6168 49.705C87.9141 50.0254 87.0826 50.1856 86.1225 50.1856C85.6633 50.1856 85.2354 50.1438 84.8389 50.0602C84.7205 50.1229 84.6302 50.2133 84.5676 50.3318C84.5049 50.4502 84.4736 50.5721 84.4736 50.6975C84.4736 50.8716 84.5431 51.0283 84.6824 51.1675C84.8285 51.3069 85.1659 51.3765 85.6946 51.3765H87.5105C88.3732 51.3765 89.1176 51.5158 89.7438 51.7944C90.3769 52.0729 90.8674 52.4526 91.2153 52.9331C91.5631 53.4137 91.7371 53.964 91.7371 54.5839C91.7371 55.7191 91.2397 56.6141 90.2448 57.2688C89.2498 57.9234 87.7714 58.2509 85.8094 58.2509C84.3901 58.2509 83.2908 58.1046 82.5117 57.812C81.7393 57.5265 81.2002 57.1156 80.8941 56.5792C80.5949 56.0499 80.4453 55.4196 80.4453 54.6882H83.3673C83.3673 55.0087 83.43 55.2699 83.5552 55.4718C83.6874 55.6808 83.9344 55.8341 84.2962 55.9315C84.6649 56.029 85.1972 56.0778 85.8929 56.0778C86.5956 56.0778 87.1313 56.022 87.5 55.9107C87.8688 55.7992 88.1192 55.646 88.2515 55.4509C88.3906 55.2629 88.4602 55.0505 88.4602 54.8136C88.4602 54.4863 88.3314 54.2217 88.0741 54.0197C87.8166 53.8177 87.4097 53.7167 86.853 53.7167H85.0893C83.8926 53.7167 83.0229 53.4973 82.4803 53.0585C81.9376 52.6128 81.6663 52.0938 81.6663 51.5019C81.6663 51.091 81.7741 50.701 81.9898 50.3318C82.2124 49.9627 82.5221 49.6527 82.9187 49.402C82.209 49.0258 81.701 48.5836 81.3949 48.0752C81.0888 47.5598 80.9358 46.9434 80.9358 46.226C80.9358 45.3902 81.148 44.6729 81.5724 44.0739C81.9968 43.4679 82.5811 43.0013 83.3256 42.674C84.077 42.3467 84.9329 42.1829 85.8929 42.1829C86.7208 42.1968 87.441 42.1412 88.0532 42.0158C88.6654 41.8834 89.2151 41.7059 89.7021 41.4829C90.189 41.2531 90.6552 41.0093 91.1004 40.7517ZM85.9764 44.3246C85.4546 44.3246 85.0406 44.4918 84.7345 44.8262C84.4283 45.1535 84.2753 45.6062 84.2753 46.1843C84.2753 46.7971 84.4319 47.2673 84.745 47.5946C85.058 47.9219 85.4686 48.0857 85.9764 48.0857C87.1034 48.0857 87.667 47.4379 87.667 46.1425C87.667 44.9306 87.1034 44.3246 85.9764 44.3246Z" fill="url(#paint11_linear_2_5657)"/>
	</g>

	 <g id="github">
		 <path id="Vector" d="M44 0C19.69 0 0 19.68 0 44C0 63.47 12.59 79.91 30.08 85.74C32.28 86.13 33.11 84.81 33.11 83.65C33.11 82.61 33.05 79.14 33.05 75.46C22 77.49 19.14 72.76 18.26 70.29C17.76 69.02 15.62 65.12 13.75 64.07C12.21 63.25 10.01 61.21 13.69 61.16C17.16 61.1 19.63 64.35 20.45 65.67C24.42 72.32 30.74 70.45 33.27 69.3C33.66 66.43 34.81 64.51 36.08 63.41C26.29 62.31 16.06 58.52 16.06 41.68C16.06 36.9 17.76 32.94 20.57 29.86C20.12 28.76 18.59 24.25 21.01 18.2C21.01 18.2 24.69 17.04 33.11 22.71C36.63 21.72 40.37 21.23 44.11 21.23C47.85 21.23 51.59 21.72 55.11 22.71C63.52 16.99 67.21 18.2 67.21 18.2C69.62 24.25 68.08 28.76 67.65 29.86C70.45 32.94 72.16 36.84 72.16 41.68C72.16 58.57 61.87 62.31 52.08 63.41C53.68 64.79 55.05 67.43 55.05 71.55C55.05 77.43 55 82.17 55 83.65C55 84.81 55.82 86.18 58.02 85.74C66.75 82.79 74.34 77.18 79.72 69.69C85.1 62.2 87.99 53.21 88 44C88 19.68 68.31 0 44 0Z" fill="#FFFEFE" fill-opacity="1.000000" fill-rule="evenodd"/>

	 </g>

	<g id="html">
		<path id="Vector" d="M22.13 102L13.7 7.5L106.29 7.5L97.85 101.98L59.94 112.5L22.13 102Z" fill="#E44F26" fill-opacity="1.000000" fill-rule="nonzero"/>
		<path id="Vector" d="M60 104.46L90.63 95.97L97.84 15.22L60 15.22L60 104.46Z" fill="#F1662A" fill-opacity="1.000000" fill-rule="nonzero"/>
		<path id="Vector" d="M60 50.27L44.66 50.27L43.6 38.4L60 38.4L60 26.81L30.93 26.81L31.21 29.92L34.06 61.86L60 61.86L60 50.27ZM60 80.37L59.94 80.39L47.04 76.9L46.21 67.66L34.57 67.66L36.2 85.86L59.94 92.45L60 92.43L60 80.37Z" fill="#EBEBEB" fill-opacity="1.000000" fill-rule="nonzero"/>
		<path id="Vector" d="M59.95 50.27L59.95 61.86L74.23 61.86L72.88 76.9L59.95 80.38L59.95 92.44L83.72 85.86L83.89 83.9L86.61 53.38L86.9 50.27L59.95 50.27ZM59.95 26.81L59.95 38.4L87.95 38.4L88.18 35.8L88.71 29.92L88.99 26.81L59.95 26.81Z" fill="#FFFFFF" fill-opacity="1.000000" fill-rule="nonzero"/>

	</g>

	<g id="react">
		<path d="M7.5 7.5L112.5 7.5L112.5 112.5L7.5 112.5L7.5 7.5Z" fill="#F5DE19" fill-opacity="1.000000" fill-rule="nonzero"/>
		<path d="M78.03 89.53C78.92 91.34 80.31 92.87 82.04 93.93C83.76 94.99 85.75 95.55 87.78 95.53C91.87 95.53 94.48 93.48 94.48 90.65C94.48 87.28 91.8 86.07 87.3 84.1L84.83 83.04C77.7 80.01 72.98 76.21 72.98 68.18C72.98 60.78 78.6 55.14 87.43 55.14C90.28 54.94 93.14 55.58 95.63 56.98C98.13 58.39 100.15 60.49 101.46 63.04L93.75 67.98C93.24 66.71 92.37 65.63 91.24 64.87C90.11 64.12 88.77 63.72 87.41 63.75C86.82 63.69 86.22 63.75 85.65 63.94C85.08 64.12 84.56 64.42 84.12 64.82C83.67 65.22 83.32 65.7 83.07 66.25C82.83 66.79 82.7 67.38 82.69 67.98C82.69 70.93 84.52 72.13 88.76 73.98L91.23 75.03C99.61 78.63 104.35 82.29 104.35 90.53C104.35 99.42 97.37 104.28 88 104.28C84.35 104.52 80.71 103.69 77.52 101.9C74.33 100.11 71.72 97.43 70.02 94.19L78.03 89.53ZM43.17 90.38C44.72 93.13 46.13 95.46 49.52 95.46C52.76 95.46 54.81 94.19 54.81 89.26L54.81 55.71L64.68 55.71L64.68 89.39C64.68 99.6 58.68 104.25 49.94 104.25C46.85 104.42 43.79 103.65 41.15 102.05C38.5 100.44 36.41 98.07 35.14 95.25L43.17 90.38Z" fill="#000000" fill-opacity="1.000000" fill-rule="nonzero"/>

	</g>

	<g id="js">
		<path id="Vector" d="M92.9 32.7C91.69 32.28 90.48 31.9 89.26 31.55C89.46 30.71 89.65 29.87 89.82 29.06C92.57 15.64 90.77 4.84 84.63 1.28C78.73 -2.13 69.09 1.42 59.36 9.93C58.4 10.77 57.46 11.63 56.54 12.52C55.93 11.93 55.31 11.35 54.67 10.78C44.47 1.69 34.24 -2.14 28.1 1.43C22.21 4.85 20.47 15.01 22.94 27.72C23.19 28.98 23.47 30.23 23.78 31.48C22.33 31.89 20.93 32.33 19.6 32.8C7.63 36.98 0 43.54 0 50.35C0 57.38 8.2 64.42 20.66 68.7C21.67 69.04 22.69 69.36 23.71 69.66C23.38 71 23.08 72.35 22.82 73.71C20.46 86.2 22.31 96.12 28.18 99.52C34.25 103.03 44.43 99.42 54.34 90.72C55.14 90.01 55.93 89.29 56.7 88.54C57.69 89.5 58.71 90.43 59.75 91.34C69.36 99.63 78.84 102.98 84.71 99.57C90.77 96.05 92.74 85.39 90.18 72.43C89.98 71.41 89.75 70.4 89.5 69.4C90.22 69.19 90.92 68.97 91.6 68.74C104.56 64.43 112.99 57.47 112.99 50.35C112.99 43.52 105.1 36.91 92.9 32.7ZM90.09 64.14C89.47 64.35 88.83 64.55 88.19 64.74C86.76 60.19 84.83 55.36 82.47 50.37C84.72 45.5 86.58 40.73 87.97 36.22C89.12 36.55 90.24 36.9 91.33 37.28C101.78 40.89 108.16 46.23 108.16 50.35C108.16 54.73 101.27 60.42 90.09 64.14ZM85.45 73.37C86.58 79.1 86.74 84.29 85.99 88.34C85.32 91.98 83.96 94.41 82.29 95.38C78.73 97.45 71.11 94.76 62.9 87.67C61.93 86.83 60.98 85.96 60.06 85.07C63.24 81.57 66.43 77.51 69.53 73C74.99 72.51 80.15 71.71 84.83 70.63C85.06 71.54 85.26 72.45 85.45 73.37ZM38.52 95.02C35.04 96.25 32.27 96.29 30.59 95.32C27.03 93.26 25.55 85.29 27.57 74.61C27.81 73.35 28.08 72.09 28.39 70.85C33.02 71.87 38.14 72.61 43.62 73.06C46.74 77.47 50.02 81.53 53.32 85.08C52.62 85.77 51.9 86.43 51.16 87.07C46.78 90.92 42.39 93.65 38.52 95.02ZM22.22 64.12C16.71 62.23 12.16 59.77 9.04 57.09C6.24 54.68 4.82 52.29 4.82 50.35C4.82 46.22 10.96 40.95 21.19 37.37C22.43 36.94 23.73 36.53 25.08 36.14C26.49 40.76 28.34 45.59 30.58 50.47C28.32 55.42 26.43 60.32 25.01 64.99C24.07 64.72 23.14 64.43 22.22 64.12ZM27.68 26.79C25.56 15.9 26.97 7.68 30.52 5.62C34.3 3.42 42.66 6.56 51.47 14.41C52.04 14.92 52.61 15.44 53.16 15.98C49.88 19.51 46.63 23.54 43.54 27.93C38.22 28.43 33.13 29.22 28.46 30.28C28.17 29.13 27.91 27.96 27.68 26.79L27.68 26.79ZM76.42 38.87C75.32 36.95 74.17 35.06 72.98 33.2C76.59 33.65 80.04 34.26 83.29 35C82.31 38.14 81.1 41.41 79.67 44.77C78.63 42.78 77.54 40.81 76.42 38.87ZM56.54 19.44C58.77 21.86 61 24.56 63.19 27.5C58.74 27.28 54.29 27.28 49.84 27.49C52.03 24.59 54.28 21.89 56.54 19.44ZM36.54 38.9C35.43 40.83 34.37 42.79 33.35 44.77C31.95 41.42 30.74 38.13 29.76 34.95C32.99 34.23 36.42 33.64 40.01 33.19C38.81 35.07 37.65 36.97 36.54 38.9L36.54 38.9ZM40.11 67.85C36.41 67.44 32.92 66.88 29.69 66.17C30.69 62.94 31.92 59.58 33.36 56.16C34.38 58.14 35.45 60.1 36.56 62.03C37.71 64.01 38.89 65.96 40.11 67.85ZM56.68 81.6C54.39 79.12 52.11 76.38 49.88 73.43C52.04 73.52 54.25 73.56 56.49 73.56C58.79 73.56 61.07 73.51 63.31 73.41C61.11 76.41 58.89 79.15 56.68 81.6ZM79.72 55.99C81.23 59.44 82.5 62.78 83.51 65.96C80.23 66.71 76.7 67.32 72.97 67.76C74.16 65.86 75.32 63.94 76.44 61.99C77.58 60.02 78.67 58.01 79.72 55.99ZM72.26 59.57C70.55 62.56 68.74 65.49 66.84 68.35C63.39 68.6 59.94 68.72 56.49 68.72C52.97 68.72 49.55 68.61 46.26 68.39C44.31 65.53 42.47 62.6 40.74 59.6L40.74 59.6C39.02 56.62 37.41 53.57 35.92 50.46C37.4 47.36 39.01 44.31 40.72 41.32L40.72 41.32C42.44 38.34 44.27 35.42 46.2 32.57C49.56 32.31 53.01 32.18 56.49 32.18L56.49 32.18C59.99 32.18 63.44 32.31 66.8 32.57C68.71 35.41 70.53 38.32 72.24 41.3C73.96 44.28 75.59 47.31 77.11 50.39C75.6 53.51 73.98 56.57 72.26 59.57ZM82.22 5.48C86 7.67 87.47 16.5 85.09 28.08C84.94 28.82 84.77 29.57 84.59 30.33C79.9 29.25 74.81 28.44 69.48 27.94C66.37 23.5 63.16 19.47 59.93 15.97C60.77 15.16 61.64 14.36 62.53 13.58C70.87 6.3 78.66 3.42 82.22 5.48ZM56.49 40.22C62.06 40.22 66.58 44.76 66.58 50.35C66.58 55.94 62.06 60.47 56.49 60.47C50.92 60.47 46.4 55.94 46.4 50.35C46.4 44.76 50.92 40.22 56.49 40.22Z" fill="#00D8FF" fill-opacity="1.000000" fill-rule="nonzero"/>

	</g>

	<g id="sass">
		<path id="Vector" d="M100.46 49.87C96.39 49.89 92.85 50.86 89.89 52.3C88.8 50.16 87.71 48.26 87.52 46.87C87.31 45.24 87.05 44.25 87.31 42.3C87.57 40.36 88.72 37.59 88.69 37.38C88.67 37.17 88.44 36.17 86.09 36.15C83.75 36.13 81.73 36.6 81.49 37.21C81.26 37.82 80.81 39.22 80.51 40.65C80.11 42.77 75.82 50.31 73.37 54.26C72.58 52.72 71.9 51.37 71.75 50.29C71.54 48.66 71.28 47.67 71.54 45.72C71.8 43.78 72.95 41.01 72.93 40.8C72.9 40.59 72.67 39.6 70.33 39.58C67.98 39.55 65.96 40.02 65.72 40.63C65.49 41.25 65.23 42.68 64.74 44.08C64.25 45.47 58.56 58.06 57.07 61.32C56.47 62.63 55.83 63.94 55.17 65.23C55.17 65.23 55.15 65.29 55.09 65.4C54.88 65.8 54.67 66.2 54.45 66.6L54.45 66.62C54.13 67.19 53.79 67.72 53.62 67.72C53.49 67.72 53.26 66.2 53.66 64.13C54.51 59.75 56.54 52.95 56.52 52.72C56.52 52.59 56.9 51.41 55.2 50.8C53.53 50.18 52.94 51.2 52.79 51.2C52.64 51.2 52.53 51.56 52.53 51.56C52.53 51.56 54.39 43.91 48.99 43.91C45.63 43.91 40.98 47.56 38.68 50.86C36.06 52.27 33.45 53.69 30.84 55.11C29.58 55.8 28.28 56.5 27.07 57.16C26.98 57.07 26.89 56.97 26.81 56.88C20.29 49.97 8.23 45.09 8.74 35.81C8.93 32.43 10.1 23.56 31.9 12.78C49.85 4.02 64.12 6.44 66.6 11.83C70.13 19.52 58.95 33.81 40.41 35.88C33.33 36.66 29.62 33.96 28.68 32.94C27.7 31.88 27.56 31.82 27.19 32.03C26.6 32.35 26.98 33.3 27.19 33.85C27.75 35.29 30.03 37.82 33.88 39.07C37.29 40.17 45.58 40.78 55.62 36.93C66.85 32.62 75.63 20.64 73.05 10.61C70.47 0.42 53.43 -2.94 37.29 2.75C27.7 6.13 17.3 11.45 9.82 18.38C0.94 26.62 -0.47 33.79 0.11 36.79C2.17 47.44 16.99 54.37 22.91 59.5C22.61 59.67 22.33 59.82 22.1 59.94C19.14 61.4 7.84 67.26 5.03 73.45C1.83 80.46 5.54 85.49 7.99 86.17C15.6 88.26 23.42 84.5 27.62 78.28C31.82 72.07 31.31 64 29.37 60.3C29.35 60.26 29.32 60.22 29.28 60.18C30.05 59.73 30.84 59.27 31.6 58.82C33.01 58 34.44 57.2 35.89 56.44C35.16 58.4 34.63 60.75 34.37 64.13C34.05 68.1 35.7 73.26 37.85 75.28C38.81 76.17 39.94 76.19 40.66 76.19C43.18 76.19 44.31 74.12 45.56 71.67C47.1 68.67 48.48 65.18 48.48 65.18C48.48 65.18 46.76 74.61 51.44 74.61C53.15 74.61 54.88 72.41 55.64 71.29L55.64 71.31C55.64 71.31 55.68 71.25 55.77 71.1C55.94 70.83 56.05 70.66 56.05 70.66L56.05 70.61C56.73 69.43 58.26 66.75 60.54 62.29C63.48 56.54 66.32 49.36 66.32 49.36C66.32 49.36 66.57 51.11 67.45 54.03C67.96 55.74 69.02 57.62 69.88 59.44C69.2 60.39 68.77 60.92 68.77 60.92L68.79 60.94C68.24 61.66 67.64 62.44 66.98 63.2C64.66 65.95 61.89 69.09 61.5 70C61.05 71.08 61.16 71.86 62.01 72.5C62.63 72.96 63.74 73.02 64.87 72.96C66.96 72.81 68.43 72.31 69.15 71.99C70.28 71.59 71.6 70.97 72.84 70.07C75.12 68.4 76.5 66.01 76.38 62.86C76.31 61.13 75.74 59.4 75.03 57.77C75.25 57.47 75.44 57.18 75.65 56.88C79.25 51.66 82.05 45.94 82.05 45.94C82.05 45.94 82.3 47.69 83.18 50.61C83.6 52.08 84.48 53.69 85.24 55.25C81.85 57.98 79.77 61.15 79.02 63.22C77.68 67.07 78.72 68.8 80.7 69.2C81.6 69.39 82.88 68.97 83.81 68.56C85.01 68.18 86.41 67.53 87.76 66.56C90.04 64.89 92.23 62.56 92.1 59.42C92.04 57.98 91.66 56.56 91.12 55.19C94 54.01 97.71 53.35 102.44 53.9C112.58 55.08 114.59 61.36 114.2 64C113.82 66.64 111.69 68.08 110.99 68.52C110.28 68.97 110.05 69.11 110.11 69.43C110.2 69.9 110.54 69.88 111.14 69.79C111.97 69.64 116.46 67.66 116.65 62.8C116.97 56.58 111.01 49.8 100.46 49.87ZM22.21 76.02C18.84 79.66 14.15 81.03 12.13 79.87C9.95 78.62 10.81 73.26 14.94 69.41C17.45 67.07 20.69 64.89 22.85 63.56C23.34 63.26 24.06 62.84 24.93 62.31C25.08 62.23 25.17 62.18 25.17 62.18L25.68 61.87C27.19 67.36 25.74 72.2 22.21 76.02ZM46.71 59.5C45.54 62.33 43.09 69.58 41.6 69.18C40.32 68.84 39.53 63.35 41.34 57.92C42.26 55.19 44.2 51.94 45.33 50.67C47.16 48.64 49.19 47.96 49.68 48.79C50.29 49.87 47.44 57.73 46.71 59.5ZM66.94 69.09C66.45 69.35 65.98 69.52 65.76 69.39C65.62 69.3 65.98 68.97 65.98 68.97C65.98 68.97 68.51 66.26 69.52 65.04C70.09 64.32 70.77 63.47 71.5 62.52L71.5 62.8C71.5 66.03 68.34 68.21 66.94 69.09L66.94 69.09ZM82.54 65.56C82.17 65.31 82.24 64.47 83.45 61.82C83.92 60.79 85.03 59.06 86.93 57.39C87.14 58.06 87.29 58.72 87.27 59.33C87.25 63.41 84.3 64.93 82.54 65.56Z" fill="#CD6799" fill-opacity="1.000000" fill-rule="nonzero"/>

	</g>

	<g id="vs">
		<path d="M101.53 17.6L81.35 7.88C80.21 7.33 78.93 7.15 77.68 7.37C76.43 7.58 75.28 8.17 74.39 9.07L8.32 69.3C7.52 70.02 7.04 71.04 6.99 72.12C6.94 73.2 7.32 74.26 8.04 75.06C8.13 75.15 8.22 75.25 8.31 75.33L13.71 80.23C14.41 80.87 15.32 81.24 16.27 81.29C17.22 81.33 18.16 81.04 18.92 80.46L98.49 20.12C99.09 19.66 99.81 19.38 100.56 19.31C101.31 19.24 102.07 19.38 102.74 19.72C103.42 20.05 103.99 20.57 104.39 21.21C104.78 21.85 105 22.59 105 23.35L105 23.11C105 21.96 104.67 20.83 104.06 19.86C103.44 18.88 102.57 18.1 101.53 17.6Z" fill="#0065A9" fill-opacity="1.000000" fill-rule="nonzero"/>
		<path d="M101.53 94.39L81.35 104.11C80.21 104.66 78.93 104.84 77.68 104.63C76.43 104.41 75.28 103.82 74.39 102.93L8.32 42.7C7.52 41.97 7.04 40.95 6.99 39.87C6.94 38.79 7.32 37.73 8.04 36.93C8.13 36.84 8.22 36.75 8.31 36.66L13.71 31.76C14.41 31.12 15.32 30.74 16.28 30.7C17.23 30.66 18.17 30.95 18.93 31.53L98.49 91.87C99.09 92.33 99.81 92.61 100.56 92.68C101.31 92.75 102.07 92.61 102.74 92.27C103.42 91.94 103.99 91.42 104.39 90.78C104.78 90.14 105 89.4 105 88.64L105 88.9C104.99 90.04 104.66 91.17 104.05 92.14C103.44 93.11 102.57 93.89 101.53 94.39Z" fill="#007ACC" fill-opacity="1.000000" fill-rule="nonzero"/>
		<path d="M81.35 104.11C80.21 104.66 78.93 104.84 77.68 104.63C76.43 104.41 75.28 103.82 74.39 102.93C74.89 103.42 75.53 103.76 76.22 103.89C76.91 104.03 77.63 103.96 78.28 103.69C78.94 103.42 79.49 102.96 79.89 102.37C80.28 101.79 80.49 101.1 80.5 100.39L80.5 11.6C80.5 10.89 80.29 10.2 79.89 9.61C79.5 9.02 78.94 8.56 78.28 8.29C77.63 8.02 76.9 7.94 76.21 8.08C75.51 8.22 74.87 8.56 74.37 9.07C75.27 8.17 76.42 7.58 77.67 7.36C78.91 7.15 80.19 7.33 81.34 7.88L101.51 17.58C102.55 18.08 103.43 18.86 104.05 19.84C104.67 20.81 104.99 21.94 105 23.1L105 88.9C105 90.05 104.67 91.18 104.06 92.15C103.44 93.13 102.57 93.91 101.53 94.41L81.35 104.11Z" fill="#1F9CF0" fill-opacity="1.000000" fill-rule="nonzero"/>

	</g>
</svg>
